<svg width="16" height="16" viewBox="0 0 16 16" fill="none" xmlns="http://www.w3.org/2000/svg">
  <!-- Plane logo (scaled to fill viewport) -->
  <g transform="translate(0, 0) scale(0.022)">
    <path d="M680.17 0.455094C685.916 -0.483064 691.557 0.0290822 697.089 1.99318C699.719 2.9449 701.686 4.58215 702.99 6.90334L703.242 7.37697L703.631 7.60646C707.617 10.0183 710.307 13.532 711.701 18.1436C712.726 24.2958 712.726 30.4483 711.701 36.6006C706.076 53.2507 700.091 69.6129 693.748 85.6846L692.475 88.8955C692.861 91.201 692.433 93.1467 691.195 94.7344L690.937 95.0479C674.527 145.653 657.729 196.13 640.545 246.479L637.104 256.547C629.209 280.555 621.157 304.361 612.947 327.963L609.418 338.065C581.533 425.055 552.566 511.7 522.516 598.002C514.82 608.035 504.822 611.367 492.524 607.999C468.35 594.295 445.278 579.171 423.31 562.626L421.407 561.532C401.77 550.203 382.922 537.751 364.863 524.174L362.069 523.146C359.309 522.14 356.651 521.2 354.096 520.328C328.461 550.064 302.827 579.801 277.192 609.537C276.335 610.206 275.38 610.474 274.328 610.339L274.116 610.307L273.647 610.677C268.806 614.37 264.091 613.735 259.503 608.769C258.782 592.434 258.511 576.091 258.692 559.743L258.735 556.474C256.951 536.233 256.693 515.723 257.965 494.95C259.08 491.184 260.619 487.593 262.579 484.184C289.969 452.23 318.042 420.942 346.797 390.322L352.558 384.208L426.386 302.689L435.418 292.834C480.564 243.541 525.49 194.018 570.197 144.267C571.255 142.987 570.998 141.963 569.428 141.19C557.13 147.337 545.339 154.258 534.052 161.954C422.414 242.85 312.109 325.49 203.138 409.874L192.597 418.046C185.497 422.349 177.807 423.632 169.526 421.891C148.186 414.818 127.026 407.392 106.043 399.611L101.85 398.051C100.324 398.315 99.2999 397.801 98.7738 396.513L93.1566 394.678C65.0837 385.459 37.2202 375.561 9.56485 364.981C1.02086 357.94 -1.79888 348.967 1.10489 338.065C2.46302 334.063 4.77064 330.73 8.02676 328.067C49.9195 306.865 91.9602 286.101 134.15 265.775L134.359 265.524C135.362 264.404 136.708 263.956 138.397 264.179L138.764 264.237L156.759 255.251C246.764 210.369 337.152 166.197 427.924 122.733L429.835 121.662C449.603 110.63 469.987 100.733 490.986 91.9717L493.473 90.6123C519.199 76.6004 545.544 63.7244 572.504 51.9815L573.743 51.2461C586.147 43.9329 599.125 37.6851 612.675 32.501L614.033 31.9863C635.326 20.1739 657.371 9.66206 680.17 0.455094Z" fill="#FF2454"/>
  </g>
</svg> 