<svg width="658" height="158" viewBox="0 0 658 158" fill="none" xmlns="http://www.w3.org/2000/svg">
<path d="M43.0339 2.49972C64.2177 -1.43025 83.885 2.23692 102.034 13.4997C111.485 22.2386 116.152 33.0719 116.034 45.9997H85.0339C85.2038 41.6838 84.2038 37.6836 82.0339 33.9997C82.0726 33.8449 82.1151 33.7096 82.1598 33.5935L82.2282 33.4343C82.1568 33.5793 82.0919 33.7678 82.0339 33.9997C78.6819 29.9849 74.3487 27.4847 69.0339 26.4997C61.635 25.6518 54.3007 25.9847 47.0339 27.4997C35.8901 31.2927 32.3901 38.793 36.5339 49.9997C40.8138 54.5586 45.981 57.7257 52.0339 59.4997C65.9387 62.7257 79.605 66.7258 93.0339 71.4997C115.968 82.9247 123.801 101.092 116.534 126C112.034 138.5 103.534 147 91.0339 151.5C70.0179 158.735 49.0178 158.735 28.0338 151.5C8.69511 142.993 -0.638145 128.16 0.0338505 107C9.70574 106.834 19.373 107 29.0338 107.5C30.8028 120.602 38.1371 128.602 51.0339 131.5C63.7628 134.359 74.9289 131.525 84.5339 123C90.4837 108.067 85.6508 98.5667 70.0339 94.4997C56.43 91.7657 43.0967 88.0987 30.0338 83.4997C24.364 80.6668 19.0307 77.3336 14.0339 73.4997C12.3583 71.3998 10.8734 69.2234 9.5778 66.9704L9.03385 65.9997C7.39805 64.7508 6.2308 63.0836 5.53385 60.9997C-1.81594 28.696 10.6842 9.19575 43.0339 2.49972ZM98.7253 44.0271C98.1211 44.0349 97.5169 44.0414 96.9128 44.0466L98.7262 44.0271C99.3304 44.0193 99.9346 44.0101 100.539 43.9997L98.7253 44.0271ZM113.896 36.2214C114.056 36.8898 114.201 37.5651 114.332 38.2478L114.126 37.2292C113.981 36.5538 113.82 35.8855 113.646 35.2243L113.896 36.2214ZM83.3581 33.7077C83.4148 33.7961 83.4743 33.8929 83.5339 33.9997L83.4069 33.7819C83.391 33.7562 83.3737 33.7321 83.3581 33.7077ZM101.812 15.2409C102.068 15.4896 102.321 15.7397 102.569 15.9919L101.813 15.2409C101.557 14.9922 101.297 14.7449 101.034 14.4997L101.812 15.2409ZM94.8893 10.9802C95.1484 11.1142 95.4073 11.2492 95.6657 11.3864L94.8903 10.9802C94.6312 10.8462 94.3718 10.7136 94.112 10.5827L94.8893 10.9802Z" fill="#101010"/>
<path d="M163.035 155H134.035C134.048 104.664 133.715 54.33 133.035 4H163.035V155Z" fill="#101010"/>
<path d="M532.035 155H501.035V4H532.035V155Z" fill="#101010"/>
<path d="M354.035 155H324.035V141C324.165 140.261 323.998 139.594 323.535 139C317.415 148.11 308.914 153.61 298.035 155.5C265.512 161.493 243.012 149.327 230.535 119C225.61 99.536 227.61 80.87 236.535 63C251.66 42.5411 271.826 35.041 297.035 40.5C307.864 43.4828 316.961 49.0504 324.327 57.2031L325.035 58C324.049 40.077 323.716 22.077 324.035 4H354.035V155ZM324.535 90C318.925 70.2561 305.758 61.5901 285.035 64C264.543 70.956 256.376 85.29 260.535 107C263.265 120.063 271.098 128.23 284.035 131.5C312.611 132.571 326.111 118.738 324.535 90Z" fill="#101010"/>
<path d="M417.035 39C462.808 37.7742 485.476 60.1071 485.035 106C455.694 105.667 426.36 106 397.035 107C403.327 129.983 417.993 138.15 441.035 131.5C446.367 128.833 450.368 124.833 453.035 119.5C463.034 118.833 473.035 118.833 483.035 119.5C475.612 141.045 460.611 153.379 438.035 156.5C414.877 159.782 395.377 152.949 379.535 136C364.471 113.513 363.137 90.179 375.535 66C385.584 51.1071 399.417 42.107 417.035 39ZM456.035 86C450.2 66.5181 437.199 58.5182 417.035 62C405.831 66.548 399.498 74.881 398.035 87C417.379 87.333 436.713 87 456.035 86Z" fill="#101010"/>
<path d="M580.535 56.0001C593.34 40.4182 609.506 35.5851 629.035 41.5001C633.74 42.9092 637.842 45.1949 641.342 48.3565L642.035 49.0001C650.214 55.684 655.048 64.3512 656.535 75.0001C657.035 101.665 657.202 128.331 657.035 155H627.035C627.202 131.331 627.035 107.664 626.535 84.0001C625.796 80.9541 624.963 77.954 624.035 75.0001L623.701 74.5733C616.663 65.7086 607.441 62.6839 596.035 65.5001C590.119 68.0275 585.555 72.0171 582.341 77.4678L582.035 78.0001L580.535 84.0001C580.035 107.664 579.868 131.331 580.035 155H551.035V41.0001C561.092 40.3601 570.76 41.0271 580.035 43.0001L580.007 43.8145C579.891 47.8875 580.067 51.949 580.535 56.0001ZM578.282 54.2911C578.307 54.6121 578.334 54.9331 578.363 55.254L578.288 54.3799C578.286 54.3503 578.284 54.3207 578.282 54.2911ZM643.056 51.2608C643.272 51.4613 643.485 51.6634 643.695 51.8672L643.056 51.2598C642.84 51.0592 642.621 50.8603 642.4 50.6631L643.056 51.2608ZM579.137 48.9883C579.036 49.8591 578.946 50.7364 578.868 51.6202L578.951 50.7393C579.037 49.8598 579.134 48.9867 579.243 48.1202L579.137 48.9883Z" fill="#101010"/>
<path d="M212.034 155H182.034V41H212.034V155ZM194.034 0C210.763 0.558051 216.929 8.89109 212.534 25C207.326 32.614 200.16 35.1139 191.034 32.5C181.144 27.473 177.977 19.64 181.534 9C184.756 4.64304 188.923 1.64299 194.034 0Z" fill="#101010"/>
</svg>
