<svg width="713" height="614" viewBox="0 0 713 614" fill="none" xmlns="http://www.w3.org/2000/svg">
<path d="M680.17 0.455094C685.916 -0.483064 691.557 0.0290822 697.089 1.99318C699.719 2.9449 701.686 4.58215 702.99 6.90334L703.242 7.37697L703.631 7.60646C707.617 10.0183 710.307 13.532 711.701 18.1436C712.726 24.2958 712.726 30.4483 711.701 36.6006C706.076 53.2507 700.091 69.6129 693.748 85.6846L692.475 88.8955C692.861 91.201 692.433 93.1467 691.195 94.7344L690.937 95.0479C674.527 145.653 657.729 196.13 640.545 246.479L637.104 256.547C629.209 280.555 621.157 304.361 612.947 327.963L609.418 338.065C581.533 425.055 552.566 511.7 522.516 598.002C514.82 608.035 504.822 611.367 492.524 607.999C468.35 594.295 445.278 579.171 423.31 562.626L421.407 561.532C401.77 550.203 382.922 537.751 364.863 524.174L362.069 523.146C359.309 522.14 356.651 521.2 354.096 520.328C328.461 550.064 302.827 579.801 277.192 609.537C276.335 610.206 275.38 610.474 274.328 610.339L274.116 610.307L273.647 610.677C268.806 614.37 264.091 613.735 259.503 608.769C258.782 592.434 258.511 576.091 258.692 559.743L258.735 556.474C256.951 536.233 256.693 515.723 257.965 494.95C259.08 491.184 260.619 487.593 262.579 484.184C289.969 452.23 318.042 420.942 346.797 390.322L352.558 384.208L426.386 302.689L435.418 292.834C480.564 243.541 525.49 194.018 570.197 144.267C571.255 142.987 570.998 141.963 569.428 141.19C557.13 147.337 545.339 154.258 534.052 161.954C422.414 242.85 312.109 325.49 203.138 409.874L192.597 418.046C185.497 422.349 177.807 423.632 169.526 421.891C148.186 414.818 127.026 407.392 106.043 399.611L101.85 398.051C100.324 398.315 99.2999 397.801 98.7738 396.513L93.1566 394.678C65.0837 385.459 37.2202 375.561 9.56485 364.981C1.02086 357.94 -1.79888 348.967 1.10489 338.065C2.46302 334.063 4.77064 330.73 8.02676 328.067C49.9195 306.865 91.9602 286.101 134.15 265.775L134.359 265.524C135.362 264.404 136.708 263.956 138.397 264.179L138.764 264.237L156.759 255.251C246.764 210.369 337.152 166.197 427.924 122.733L429.835 121.662C449.603 110.63 469.987 100.733 490.986 91.9717L493.473 90.6123C519.199 76.6004 545.544 63.7244 572.504 51.9815L573.743 51.2461C586.147 43.9329 599.125 37.6851 612.675 32.501L614.033 31.9863C635.326 20.1739 657.371 9.66206 680.17 0.455094ZM263.901 609.968C264.023 610.053 264.146 610.134 264.269 610.212C264.019 610.054 263.773 609.882 263.529 609.697L263.901 609.968ZM262.437 608.763C262.556 608.877 262.677 608.987 262.797 609.095L262.438 608.763C262.319 608.649 262.2 608.531 262.082 608.41L262.437 608.763ZM514.715 602.82C514.464 603.004 514.212 603.183 513.956 603.355L514.338 603.092C514.591 602.914 514.842 602.73 515.09 602.54L514.715 602.82ZM436.458 570.947C437.922 571.869 439.387 572.79 440.853 573.71L436.458 570.946C434.994 570.024 433.531 569.102 432.069 568.179L436.458 570.947ZM400.173 546.138C400.777 546.545 401.38 546.954 401.983 547.364L400.174 546.138C399.57 545.73 398.965 545.324 398.36 544.919L400.173 546.138ZM390.001 539.435C390.934 540.034 391.864 540.637 392.792 541.242C391.864 540.637 390.934 540.034 390.001 539.435ZM383.668 535.418C384.287 535.805 384.906 536.192 385.523 536.581C384.289 535.803 383.051 535.03 381.81 534.262L383.668 535.418ZM172.398 420.576C172.62 420.608 172.841 420.638 173.062 420.665L172.399 420.576C172.177 420.544 171.955 420.51 171.733 420.473L172.398 420.576ZM354.78 382.783C354.414 383.028 354.047 383.269 353.676 383.507L354.78 382.784C355.145 382.54 355.508 382.291 355.869 382.039L354.78 382.783ZM33.3383 371.688C38.4933 373.585 43.6518 375.472 48.8139 377.351C41.7947 374.797 34.7819 372.226 27.7758 369.639L33.3383 371.688ZM388.823 346.743C387.579 348.155 386.34 349.57 385.106 350.989L386.961 348.864C388.201 347.449 389.444 346.036 390.692 344.628L388.823 346.743ZM3.41348 338.887C3.38678 338.952 3.36233 339.017 3.33634 339.082C3.43443 338.837 3.53573 338.592 3.64395 338.347L3.41348 338.887ZM4.72989 336.179C4.62833 336.36 4.53007 336.542 4.43399 336.723L4.73087 336.179C4.8322 335.998 4.93657 335.817 5.04337 335.636L4.72989 336.179ZM48.4057 310.095C45.8137 311.387 43.2221 312.68 40.6313 313.976L48.4066 310.095C50.9986 308.803 53.5909 307.512 56.184 306.224L48.4057 310.095ZM134.774 267.698C134.685 267.76 134.588 267.823 134.484 267.887L134.775 267.698C134.864 267.636 134.946 267.575 135.02 267.516L134.774 267.698ZM134.774 265.968C134.863 266.002 134.945 266.038 135.02 266.074L134.775 265.968C134.685 265.933 134.588 265.9 134.484 265.868L134.774 265.968ZM710.309 25.3262C710.332 25.616 710.353 25.9057 710.37 26.1953C710.336 25.6163 710.29 25.0369 710.23 24.457L710.309 25.3262ZM709.119 18.3545C709.194 18.646 709.267 18.9373 709.336 19.2285L709.12 18.3545C709.044 18.0632 708.964 17.772 708.881 17.4805L709.119 18.3545Z" fill="#FF2454"/>
</svg>
